<?xml version="1.0" standalone="no"?>
<!DOCTYPE svg PUBLIC "-//W3C//DTD SVG 20010904//EN"
 "http://www.w3.org/TR/2001/REC-SVG-20010904/DTD/svg10.dtd">
<svg version="1.0" xmlns="http://www.w3.org/2000/svg"
 width="1024.000000pt" height="1024.000000pt" viewBox="0 0 1024.000000 1024.000000"
 preserveAspectRatio="xMidYMid meet">
<metadata>
Created by potrace 1.14, written by Peter Selinger 2001-2017
</metadata>
<g transform="translate(0.000000,1024.000000) scale(0.100000,-0.100000)"
fill="#000000" stroke="none">
<path d="M0 5120 l0 -5120 5120 0 5120 0 0 5120 0 5120 -5120 0 -5120 0 0
-5120z m5479 2094 l-2 -1475 65 -44 c129 -86 217 -198 265 -337 34 -99 43
-281 19 -390 -58 -259 -294 -496 -553 -554 -55 -12 -104 -15 -186 -12 -190 9
-321 71 -472 223 -92 92 -144 176 -182 290 -23 69 -26 97 -27 205 0 88 5 144
17 190 43 158 142 295 275 380 l71 45 0 378 c1 207 -1 377 -3 377 -3 0 -44
-14 -93 -31 -204 -71 -384 -182 -541 -333 -134 -130 -218 -242 -292 -391 -106
-214 -146 -413 -137 -675 8 -200 37 -337 109 -505 121 -282 380 -559 659 -705
410 -214 935 -207 1338 17 106 60 221 150 326 257 278 282 408 596 408 986 1
229 -39 408 -133 605 -48 102 -159 268 -231 348 l-52 59 252 251 252 252 76
-80 c142 -151 290 -370 375 -554 280 -608 239 -1392 -103 -1958 -178 -295
-478 -594 -773 -772 -597 -361 -1426 -385 -2055 -60 -282 146 -535 358 -738
619 -238 307 -377 653 -424 1060 -19 166 -7 474 25 642 78 414 283 795 592
1103 187 187 349 303 579 415 180 87 311 130 563 185 l22 5 0 360 0 360 -22
-4 c-13 -3 -45 -8 -73 -11 -168 -21 -482 -110 -674 -192 -687 -291 -1286 -906
-1556 -1597 -137 -349 -193 -693 -182 -1115 17 -678 233 -1236 678 -1756 359
-420 825 -736 1309 -891 643 -205 1390 -169 1999 95 597 259 1166 805 1455
1394 168 343 252 663 278 1064 22 343 -22 650 -148 1023 -150 444 -379 856
-622 1121 l-61 66 253 252 252 252 99 -108 c257 -283 425 -525 581 -835 157
-313 272 -693 325 -1078 27 -196 37 -610 20 -815 -61 -737 -301 -1338 -765
-1920 -103 -129 -442 -468 -571 -571 -580 -463 -1186 -704 -1920 -765 -199
-16 -608 -6 -804 20 -591 80 -1128 298 -1597 649 -166 124 -275 221 -445 392
-582 587 -914 1275 -1003 2080 -91 815 84 1623 491 2275 240 382 593 762 968
1040 456 339 989 557 1552 635 206 29 343 37 641 39 l253 1 -2 -1476z"/>
</g>
</svg>
